# xmcd
#
# Track frame offsets:
#	150
#	25644
#	57037
#	84295
#	107310
#	143900
#	186634
#	213527
#	248445
#	276685
#	293182
#
# Disc length: 4091 seconds
#
# Revision: 1
# Processed by: cddbd v1.5.1PL0 Copyright (c) Steve Scherf et al.
# Submitted via: CDmax 2.0
#
DISCID=9c0ff90b
DTITLE=Eric Clapton - An Evening Of The Blues (disc1)
DYEAR=1991
DGENRE=Blues
TTITLE0=Watch Yourself
TTITLE1=Hoodoo Man
TTITLE2=Hideaway
TTITLE3=Standing Around Crying
TTITLE4=All Your Love
TTITLE5=Have You Ever Loved a Woman
TTITLE6=That's Alright
TTITLE7=Key to the Highway
TTITLE8=Wee Wee Baby
TTITLE9=Tanqueray
TTITLE10=Johnnie's Boogie
EXTD=Eric Clapton\tguitar, vocals\nRobert Cray\tguitar, vocals\nBuddy Guy\tgu
EXTD=itar, vocals\nAlbert Collins\tguitar, vocals\nJimmy Vaughan\tguitar\nJer
EXTD=ry Portnoy\tharmonica\nJohnnie Johnson\tpiano, vocal\nChuck Leavell\tkey
EXTD=boards\nGreg Phillinganes\tkeyboards\nJoey Spampinato\tbass\nJamie Oldak
EXTD=er\tdrums\n\nRecorded live at The Royal Albert Hall, London, UK on Febru
EXTD=ary 25th, 1991
EXTT0=
EXTT1=
EXTT2=
EXTT3=
EXTT4=
EXTT5=
EXTT6=
EXTT7=
EXTT8=
EXTT9=
EXTT10=
PLAYORDER=
